<svg width="52" height="40" viewBox="0 0 52 40" fill="none" xmlns="http://www.w3.org/2000/svg">
<path d="M32.2302 2.00234H19.6022C18.0757 2.00172 16.5639 2.30191 15.1535 2.88574C13.743 3.46957 12.4613 4.3256 11.3818 5.40493C10.3022 6.48425 9.44595 7.76572 8.86184 9.17609C8.27772 10.5865 7.97723 12.0981 7.97754 13.6247V26.2527C7.97693 27.7794 8.27719 29.2913 8.86117 30.702C9.44514 32.1126 10.3014 33.3943 11.381 34.4739C12.4605 35.5535 13.7423 36.4097 15.1529 36.9937C16.5636 37.5777 18.0755 37.8779 19.6022 37.8773H32.2302C33.757 37.8779 35.2689 37.5777 36.6795 36.9937C38.0901 36.4097 39.3719 35.5535 40.4515 34.4739C41.531 33.3943 42.3873 32.1126 42.9712 30.702C43.5552 29.2913 43.8555 27.7794 43.8549 26.2527V13.6247C43.8555 12.0979 43.5552 10.586 42.9712 9.17538C42.3873 7.76473 41.531 6.48299 40.4515 5.40342C39.3719 4.32385 38.0901 3.4676 36.6795 2.88363C35.2689 2.29965 33.757 1.99939 32.2302 2V2.00234Z" stroke="#FAFAFA" stroke-width="3"/>
<path d="M43.664 28.311H47.4417C48.076 28.311 48.6843 28.059 49.1328 27.6105C49.5814 27.162 49.8333 26.5536 49.8333 25.9193V13.961C49.8333 13.3267 49.5814 12.7184 49.1328 12.2698C48.6843 11.8213 48.076 11.5693 47.4417 11.5693H43.6617M8.17167 28.311H4.39167C4.07759 28.311 3.76659 28.2491 3.47642 28.1289C3.18625 28.0088 2.92259 27.8326 2.7005 27.6105C2.47842 27.3884 2.30225 27.1248 2.18205 26.8346C2.06186 26.5444 2 26.2334 2 25.9193V13.961C2 13.3267 2.25198 12.7184 2.7005 12.2698C3.14903 11.8213 3.75736 11.5693 4.39167 11.5693H8.17167" stroke="#FAFAFA" stroke-width="3"/>
<path d="M4.36816 11.5686V2.00195M47.4415 11.5686L47.4182 2.00195M18.7182 12.3853V18.6806M33.0682 12.3853V18.6806M21.1098 28.3103H30.6765" stroke="#FAFAFA" stroke-width="3" stroke-linecap="round" stroke-linejoin="round"/>
</svg>
