<svg width="252" height="250" viewBox="0 0 252 250" fill="none" xmlns="http://www.w3.org/2000/svg">
<path d="M92.0793 14.4995C66.0009 28.0217 62.7813 28.6656 54.0885 25.1241C46.0396 21.9045 43.464 22.2265 36.059 27.6997C26.4003 34.7827 23.1808 46.0512 28.976 52.8122C31.8736 56.3538 28.976 64.0807 16.4197 89.1932C7.40498 106.579 0 122.355 0 123.964C0 125.574 7.08302 140.384 15.7758 157.126C29.2979 183.204 30.9077 188.355 28.0101 196.082C23.8247 207.029 26.4003 213.468 37.0249 220.551C43.7859 225.058 46.6835 225.058 54.4105 222.161C62.4594 218.619 66.3228 219.585 94.6549 233.751L125.563 249.205L156.47 233.751C184.802 219.585 188.666 218.619 196.715 222.161C204.442 225.058 207.339 225.058 214.1 220.551C224.725 213.468 227.301 207.029 223.115 196.082C220.218 188.034 221.827 183.204 235.349 157.448C244.042 141.028 251.125 126.218 251.125 124.286C251.125 122.355 243.72 106.579 234.706 89.1932C222.149 64.0807 219.252 56.3538 222.149 52.8122C227.944 46.0512 224.725 34.7827 215.066 27.6997C207.661 22.2265 205.086 21.9045 197.037 25.1241C188.344 28.6656 185.124 28.0217 158.08 14.4995C141.982 6.45065 127.172 -0.310413 124.919 0.0115426C122.665 0.0115426 107.855 6.45065 92.0793 14.4995ZM140.051 19.0069C145.846 25.446 145.524 25.446 125.563 25.446C105.601 25.446 105.279 25.446 111.075 19.0069C114.294 15.4654 120.733 12.5678 125.563 12.5678C130.392 12.5678 136.831 15.4654 140.051 19.0069ZM52.4787 30.9193C54.4105 34.1388 193.817 33.8169 198.968 30.5973C203.798 27.6997 215.71 31.2412 215.71 35.4266C216.032 37.0364 216.032 76.9589 216.032 123.964C216.032 194.795 215.388 210.57 211.525 214.434C207.983 218.297 205.408 218.297 200.256 215.722C191.885 211.214 59.8837 210.892 51.8348 215.4C47.6494 217.331 44.1079 217.01 40.5664 214.434C35.4151 210.57 35.0931 201.556 35.0931 122.355C35.0931 52.8122 36.059 33.4949 39.2786 31.5632C44.4299 28.0217 50.547 28.0217 52.4787 30.9193ZM26.4003 125.252C25.1125 146.179 22.5369 149.077 16.7417 136.521C11.9124 126.218 11.9124 121.067 16.4197 111.086C22.8588 97.5641 27.3662 104.325 26.4003 125.252ZM238.247 122.677C238.247 125.574 236.637 132.013 234.384 136.521C231.808 142.316 229.876 143.604 227.944 140.706C224.725 135.555 224.403 107.867 227.623 104.647C230.198 102.071 237.925 114.95 238.247 122.677ZM145.524 220.873C143.592 221.517 142.304 223.771 143.592 225.38C144.558 226.99 141.338 229.888 136.187 231.819C124.919 236.005 108.821 231.819 107.533 224.093C106.889 219.263 109.787 218.619 128.138 218.941C140.051 218.941 147.778 219.907 145.524 220.873Z" fill="white"/>
<path d="M57.9523 46.3722C56.0206 51.2015 52.479 54.4211 48.2936 54.4211C42.1765 54.4211 41.8545 56.3528 41.8545 115.271C41.8545 148.754 40.8887 178.374 39.9228 181.272C38.635 184.169 41.2106 187.711 47.6497 190.93C52.801 193.506 57.9523 198.335 58.5962 201.877C60.206 207.35 64.7134 207.672 125.885 207.35C185.769 207.35 191.564 207.028 192.53 201.555C193.174 198.657 197.681 194.15 202.188 191.574L210.881 187.067L209.915 120.744C208.949 56.9967 208.627 54.4211 202.51 54.4211C198.647 54.4211 195.105 51.2015 193.174 46.3722L189.954 38.3233H125.563H61.1718L57.9523 46.3722ZM188.344 51.5235C189.632 55.065 194.139 59.2504 198.325 60.8602L206.052 64.0797V122.676V181.593L196.393 187.067C190.92 189.964 186.734 194.794 186.734 197.691C186.734 201.877 178.686 202.521 125.563 202.521C72.4403 202.521 64.3914 201.877 64.3914 197.691C64.3914 194.794 60.206 189.964 54.7327 187.067L45.0741 181.593V124.285V66.6554L55.6986 56.3528L66.0012 45.7283L126.207 45.0843C184.159 44.7624 186.413 45.0843 188.344 51.5235Z" fill="white"/>
<path d="M104.636 102.715C90.1476 117.525 89.8257 129.115 103.348 144.247C117.836 160.023 131.036 160.345 145.846 145.213C160.978 129.115 160.978 116.881 146.168 102.393C131.036 87.5827 119.124 87.5827 104.636 102.715ZM142.304 104.968C148.422 110.763 151.319 116.881 151.319 123.642C151.319 135.876 136.831 151.008 125.241 151.008C115.582 151.008 97.5526 132.978 97.5526 123.642C97.5526 114.305 115.582 96.2755 125.241 96.2755C129.748 96.2755 137.475 100.139 142.304 104.968Z" fill="white"/>
</svg>
